<svg width="129" height="47" viewBox="0 0 129 47" fill="none" xmlns="http://www.w3.org/2000/svg">
<path d="M18.608 46.448C13.36 46.448 9.05067 45.2107 5.68 42.736C2.30933 40.2187 0.496 36.6347 0.24 31.984H13.616C13.744 33.5627 14.2133 34.7147 15.024 35.44C15.8347 36.1653 16.88 36.528 18.16 36.528C19.312 36.528 20.2507 36.2507 20.976 35.696C21.744 35.0987 22.128 34.288 22.128 33.264C22.128 31.9413 21.5093 30.9173 20.272 30.192C19.0347 29.4667 17.0293 28.656 14.256 27.76C11.312 26.7787 8.92267 25.84 7.088 24.944C5.296 24.0053 3.71733 22.6613 2.352 20.912C1.02933 19.12 0.368 16.7947 0.368 13.936C0.368 11.0347 1.09333 8.56 2.544 6.512C3.99467 4.42133 6 2.84267 8.56 1.776C11.12 0.709332 14.0213 0.175999 17.264 0.175999C22.512 0.175999 26.6933 1.41333 29.808 3.888C32.9653 6.32 34.6507 9.75467 34.864 14.192H21.232C21.1893 12.8267 20.7627 11.8027 19.952 11.12C19.184 10.4373 18.1813 10.096 16.944 10.096C16.0053 10.096 15.2373 10.3733 14.64 10.928C14.0427 11.4827 13.744 12.272 13.744 13.296C13.744 14.1493 14.064 14.896 14.704 15.536C15.3867 16.1333 16.2187 16.6667 17.2 17.136C18.1813 17.5627 19.632 18.1173 21.552 18.8C24.4107 19.7813 26.7573 20.7627 28.592 21.744C30.4693 22.6827 32.0693 24.0267 33.392 25.776C34.7573 27.4827 35.44 29.6587 35.44 32.304C35.44 34.992 34.7573 37.4027 33.392 39.536C32.0693 41.6693 30.128 43.3547 27.568 44.592C25.0507 45.8293 22.064 46.448 18.608 46.448ZM89.7835 0.879997V46H77.2395V21.104L68.7275 46H58.2315L49.6555 20.912V46H37.1115V0.879997H52.2795L63.6075 30.192L74.6795 0.879997H89.7835ZM128.412 15.92C128.412 18.6507 127.772 21.1467 126.492 23.408C125.255 25.6267 123.356 27.4187 120.796 28.784C118.279 30.1067 115.185 30.768 111.516 30.768H105.308V46H92.764V0.879997H111.516C115.143 0.879997 118.215 1.52 120.732 2.8C123.292 4.08 125.212 5.85066 126.492 8.112C127.772 10.3733 128.412 12.976 128.412 15.92ZM110.3 20.784C113.841 20.784 115.612 19.1627 115.612 15.92C115.612 12.6347 113.841 10.992 110.3 10.992H105.308V20.784H110.3Z" fill="#C45EF3"/>
</svg>
