<svg width="101" height="36" viewBox="0 0 101 36" fill="none" xmlns="http://www.w3.org/2000/svg">
<path d="M13.168 35.336C10.704 35.336 8.496 34.936 6.544 34.136C4.592 33.336 3.024 32.152 1.84 30.584C0.688 29.016 0.0800002 27.128 0.0160002 24.92H8.752C8.88 26.168 9.312 27.128 10.048 27.8C10.784 28.44 11.744 28.76 12.928 28.76C14.144 28.76 15.104 28.488 15.808 27.944C16.512 27.368 16.864 26.584 16.864 25.592C16.864 24.76 16.576 24.072 16 23.528C15.456 22.984 14.768 22.536 13.936 22.184C13.136 21.832 11.984 21.432 10.48 20.984C8.304 20.312 6.528 19.64 5.152 18.968C3.776 18.296 2.592 17.304 1.6 15.992C0.608 14.68 0.112 12.968 0.112 10.856C0.112 7.72 1.248 5.272 3.52 3.512C5.792 1.72 8.752 0.823999 12.4 0.823999C16.112 0.823999 19.104 1.72 21.376 3.512C23.648 5.272 24.864 7.736 25.024 10.904H16.144C16.08 9.816 15.68 8.968 14.944 8.36C14.208 7.72 13.264 7.4 12.112 7.4C11.12 7.4 10.32 7.672 9.712 8.216C9.104 8.728 8.8 9.48 8.8 10.472C8.8 11.56 9.312 12.408 10.336 13.016C11.36 13.624 12.96 14.28 15.136 14.984C17.312 15.72 19.072 16.424 20.416 17.096C21.792 17.768 22.976 18.744 23.968 20.024C24.96 21.304 25.456 22.952 25.456 24.968C25.456 26.888 24.96 28.632 23.968 30.2C23.008 31.768 21.6 33.016 19.744 33.944C17.888 34.872 15.696 35.336 13.168 35.336ZM68.6673 1.304V35H60.4593V14.792L52.9233 35H46.2993L38.7153 14.744V35H30.5073V1.304H40.2032L49.6593 24.632L59.0193 1.304H68.6673ZM100.25 12.152C100.25 14.104 99.8018 15.896 98.9058 17.528C98.0098 19.128 96.6338 20.424 94.7778 21.416C92.9218 22.408 90.6178 22.904 87.8658 22.904H82.7778V35H74.5698V1.304H87.8658C90.5538 1.304 92.8258 1.768 94.6818 2.696C96.5378 3.624 97.9298 4.904 98.8578 6.536C99.7858 8.168 100.25 10.04 100.25 12.152ZM87.2418 16.376C88.8098 16.376 89.9778 16.008 90.7458 15.272C91.5138 14.536 91.8978 13.496 91.8978 12.152C91.8978 10.808 91.5138 9.768 90.7458 9.032C89.9778 8.296 88.8098 7.928 87.2418 7.928H82.7778V16.376H87.2418Z" fill="#FF7890"/>
</svg>
